<svg xmlns="http://www.w3.org/2000/svg" viewBox="0 0 56.87 58.48"><g id="Layer_2" data-name="Layer 2"><g id="_1" data-name="1"><g id="_775_Launching_Rocket_Start_Up" data-name="775, Launching, Rocket, Start, Up"><path d="M28.53,16.07a3.8,3.8,0,1,0,0-7.59,3.88,3.88,0,0,0-3.85,3.79A3.82,3.82,0,0,0,28.53,16.07Zm0-6.3A2.5,2.5,0,1,1,26,12.27,2.5,2.5,0,0,1,28.53,9.77Z"/><path d="M16.79,34.57a.7.7,0,0,0,.61.41.63.63,0,0,0,.61-.41,8.92,8.92,0,0,1,2.32-3.19,9.91,9.91,0,0,0,1.12,1.69.56.56,0,0,0,.91.1,8.32,8.32,0,0,1,1.21-.79,10.07,10.07,0,0,0,4.65,7.89.8.8,0,0,0,.71,0,10.21,10.21,0,0,0,4.65-7.89,8.4,8.4,0,0,1,1.22.79.63.63,0,0,0,.91-.1c.4-.59.71-1.19,1.11-1.69a9.07,9.07,0,0,1,2.33,3.19.6.6,0,0,0,1.11,0,9.74,9.74,0,0,0,.81-3.8,9.94,9.94,0,0,0-1.92-5.7A23.56,23.56,0,0,0,28.83.07a1,1,0,0,0-.71,0,23.74,23.74,0,0,0-10.32,25A9.73,9.73,0,0,0,16.79,34.57Zm11.74,4.5a8.91,8.91,0,0,1-3.75-7.3,9.72,9.72,0,0,1,7.49,0A9.2,9.2,0,0,1,28.53,39.07Zm11-6.3a13.58,13.58,0,0,0-2.22-2.6,21,21,0,0,0,1.41-3.5A8.54,8.54,0,0,1,39.55,32.77Zm-11-31.5A22.36,22.36,0,0,1,35,31.77a11.05,11.05,0,0,0-12.85,0A22.23,22.23,0,0,1,28.53,1.27ZM18.31,26.67a20.2,20.2,0,0,0,1.42,3.5,11.19,11.19,0,0,0-2.23,2.6A8.59,8.59,0,0,1,18.31,26.67Z"/><path d="M23,23.67a.63.63,0,0,0,.1.9.65.65,0,0,0,.91-.09,6,6,0,0,1,9.11,0,.65.65,0,0,0,.91.09.63.63,0,0,0,.1-.9A7.35,7.35,0,0,0,23,23.67Z"/><path d="M21.85,21.48a.66.66,0,0,0,.91-.1,7.64,7.64,0,0,1,11.53,0c.1.19.31.19.51.19a.63.63,0,0,0,.5-1,8.87,8.87,0,0,0-13.55,0A.64.64,0,0,0,21.85,21.48Z"/><path d="M56.35,40a9.23,9.23,0,0,0-8.2,4.79,6.56,6.56,0,0,0-2.73,1,5.41,5.41,0,0,0-4.15-1.89,5.62,5.62,0,0,0-4.85,2.89,6.38,6.38,0,0,0-7-.6,6.2,6.2,0,0,0-10.12.5,7.13,7.13,0,0,0-7.59,1.4A8.67,8.67,0,0,0,.4,43.67a.69.69,0,0,0-.4.6V57.88a.65.65,0,0,0,.61.6H56.24a.65.65,0,0,0,.61-.6V40.57A.49.49,0,0,0,56.35,40Zm-.61,17.4H1.31V44.77a7.39,7.39,0,0,1,9.62,4.8.63.63,0,0,0,1.11.2,5.76,5.76,0,0,1,7.28-1.6.69.69,0,0,0,.91-.29,4.94,4.94,0,0,1,8.6-.4.66.66,0,0,0,.91.19,5.13,5.13,0,0,1,6.58.71.68.68,0,0,0,1.11-.21,4.21,4.21,0,0,1,3.94-3,4,4,0,0,1,3.44,1.9.56.56,0,0,0,.91.1A5.43,5.43,0,0,1,48.66,46a.54.54,0,0,0,.5-.31,8.13,8.13,0,0,1,6.58-4.4V57.38Z"/><path d="M6.27,50.17A2.2,2.2,0,1,0,8.5,52.38,2.23,2.23,0,0,0,6.27,50.17Zm0,3.21a.91.91,0,1,1,.91-.9A.9.9,0,0,1,6.27,53.38Z"/><path d="M32.47,51a.65.65,0,0,0-.61.59,1.69,1.69,0,0,1-1.71,1.7,1.75,1.75,0,0,1-1.72-1.7.61.61,0,0,0-1.22,0,3,3,0,0,0,6.07,0A.87.87,0,0,0,32.47,51Z"/><path d="M42,50.77a.75.75,0,0,0,0,.9.73.73,0,0,0,.91,0,1.68,1.68,0,0,1,2.43,0,1.62,1.62,0,0,1,0,2.4.76.76,0,0,0,0,.91.79.79,0,0,0,.91,0,2.89,2.89,0,0,0,0-4.21A3,3,0,0,0,42,50.77Z"/><path d="M17.8,51.88a1.87,1.87,0,0,0,0,2.6.79.79,0,0,0,.91,0,.73.73,0,0,0,0-.91.74.74,0,0,1,0-.9.79.79,0,0,1,.91,0,.64.64,0,0,0,.92-.9A2,2,0,0,0,17.8,51.88Z"/><path d="M52.3,49.57a.74.74,0,0,0,0-.9.75.75,0,0,1,0-.9.76.76,0,0,1,.91,0,.64.64,0,1,0,.91-.89,1.89,1.89,0,0,0-2.63,0,1.85,1.85,0,0,0,0,2.6A.54.54,0,0,0,52.3,49.57Z"/><path d="M34.19,36.17v5a.61.61,0,0,0,1.22,0v-5a.66.66,0,0,0-.61-.6A.58.58,0,0,0,34.19,36.17Z"/><path d="M36.72,34.88v7.5a.61.61,0,0,0,1.21,0v-7.5a.61.61,0,1,0-1.21,0Z"/><path d="M31.66,39.27v4.4a.61.61,0,0,0,1.22,0v-4.4a.61.61,0,0,0-1.22,0Z"/><path d="M21.55,36.17v3.1a.61.61,0,1,0,1.21,0v-3.1a.65.65,0,0,0-.61-.6A.58.58,0,0,0,21.55,36.17Z"/><path d="M19,36.17v7.5a.61.61,0,0,0,1.21,0v-7.5a.65.65,0,0,0-.61-.6A.58.58,0,0,0,19,36.17Z"/><path d="M7.08,23.67a3.1,3.1,0,1,0-3.14-3.1A3,3,0,0,0,7.08,23.67Zm0-5A1.92,1.92,0,0,1,9,20.57a1.86,1.86,0,0,1-1.92,1.91,1.91,1.91,0,1,1,0-3.81Z"/><path d="M49.67,17.38a4.16,4.16,0,0,0,4.15-4.11,4,4,0,0,0-4.15-4,4.06,4.06,0,1,0,0,8.11Zm0-6.81a2.8,2.8,0,1,1,0,5.6,2.87,2.87,0,0,1-2.83-2.79A2.81,2.81,0,0,1,49.67,10.57Z"/><path d="M44,1.77a.9.9,0,1,1-.91.9A.9.9,0,0,1,44,1.77Z"/><path d="M54.12,21.17a.91.91,0,1,1-.91.9A.91.91,0,0,1,54.12,21.17Z"/><path d="M45.32,38.07a.91.91,0,1,1-.91.91A.91.91,0,0,1,45.32,38.07Z"/><path d="M44,26.17a.91.91,0,1,1-.91.9A.9.9,0,0,1,44,26.17Z"/><path d="M11.13,6.77a.9.9,0,1,1,0,1.8.9.9,0,1,1,0-1.8Z"/><path d="M10.52,27.48a.9.9,0,1,1-.91.9A.9.9,0,0,1,10.52,27.48Z"/><path d="M5.46,36.77a.9.9,0,1,1-.91.9A.9.9,0,0,1,5.46,36.77Z"/></g></g></g></svg>