<svg width="17" height="17" viewBox="0 0 17 17" fill="none" xmlns="http://www.w3.org/2000/svg">
<g clip-path="url(#clip0_33_136)">
<path d="M8.32307 1.4988C10.5469 1.4988 10.8102 1.50856 11.6848 1.54757C12.4976 1.58333 12.9365 1.71988 13.2291 1.83368C13.616 1.98323 13.8956 2.1653 14.185 2.45466C14.4776 2.74726 14.6564 3.02362 14.806 3.41051C14.9198 3.70312 15.0563 4.14528 15.0921 4.95483C15.1311 5.83265 15.1408 6.096 15.1408 8.31657C15.1408 10.5404 15.1311 10.8037 15.0921 11.6783C15.0563 12.4911 14.9198 12.93 14.806 13.2226C14.6564 13.6095 14.4743 13.8891 14.185 14.1785C13.8924 14.4711 13.616 14.6499 13.2291 14.7995C12.9365 14.9132 12.4944 15.0498 11.6848 15.0856C10.807 15.1246 10.5436 15.1343 8.32307 15.1343C6.09925 15.1343 5.8359 15.1246 4.96133 15.0856C4.14853 15.0498 3.70962 14.9132 3.41701 14.7995C3.03012 14.6499 2.75051 14.4678 2.46116 14.1785C2.16855 13.8859 1.98973 13.6095 1.84018 13.2226C1.72639 12.93 1.58984 12.4879 1.55407 11.6783C1.51506 10.8005 1.50531 10.5371 1.50531 8.31657C1.50531 6.09275 1.51506 5.8294 1.55407 4.95483C1.58984 4.14203 1.72639 3.70312 1.84018 3.41051C1.98973 3.02362 2.1718 2.74401 2.46116 2.45466C2.75377 2.16205 3.03012 1.98323 3.41701 1.83368C3.70962 1.71988 4.15178 1.58333 4.96133 1.54757C5.8359 1.50856 6.09925 1.4988 8.32307 1.4988ZM8.32307 0C6.06349 0 5.78063 0.0097536 4.89305 0.048768C4.00873 0.0877824 3.40075 0.230835 2.87406 0.435661C2.32461 0.65024 1.85969 0.933094 1.39802 1.39802C0.933094 1.85969 0.65024 2.32461 0.435661 2.87081C0.230835 3.40075 0.0877824 4.00548 0.048768 4.8898C0.0097536 5.78063 0 6.06349 0 8.32307C0 10.5827 0.0097536 10.8655 0.048768 11.7531C0.0877824 12.6374 0.230835 13.2454 0.435661 13.7721C0.65024 14.3215 0.933094 14.7865 1.39802 15.2481C1.85969 15.7098 2.32461 15.9959 2.87081 16.2072C3.40075 16.4121 4.00548 16.5551 4.8898 16.5941C5.77738 16.6331 6.06023 16.6429 8.31982 16.6429C10.5794 16.6429 10.8623 16.6331 11.7498 16.5941C12.6342 16.5551 13.2421 16.4121 13.7688 16.2072C14.315 15.9959 14.78 15.7098 15.2416 15.2481C15.7033 14.7865 15.9894 14.3215 16.2007 13.7753C16.4056 13.2454 16.5486 12.6407 16.5876 11.7563C16.6266 10.8688 16.6364 10.5859 16.6364 8.32632C16.6364 6.06674 16.6266 5.78388 16.5876 4.89631C16.5486 4.01198 16.4056 3.40401 16.2007 2.87731C15.9959 2.32461 15.713 1.85969 15.2481 1.39802C14.7865 0.936345 14.3215 0.65024 13.7753 0.438912C13.2454 0.234086 12.6407 0.0910336 11.7563 0.0520192C10.8655 0.0097536 10.5827 0 8.32307 0Z" fill="#025259"/>
<path d="M8.32306 4.04785C5.96269 4.04785 4.04773 5.96281 4.04773 8.32318C4.04773 10.6835 5.96269 12.5985 8.32306 12.5985C10.6834 12.5985 12.5984 10.6835 12.5984 8.32318C12.5984 5.96281 10.6834 4.04785 8.32306 4.04785ZM8.32306 11.0964C6.79174 11.0964 5.54978 9.85449 5.54978 8.32318C5.54978 6.79186 6.79174 5.54991 8.32306 5.54991C9.85437 5.54991 11.0963 6.79186 11.0963 8.32318C11.0963 9.85449 9.85437 11.0964 8.32306 11.0964Z" fill="#025259"/>
<path d="M13.7656 3.87849C13.7656 4.43119 13.317 4.87661 12.7675 4.87661C12.2148 4.87661 11.7694 4.42794 11.7694 3.87849C11.7694 3.32579 12.2181 2.88037 12.7675 2.88037C13.317 2.88037 13.7656 3.32904 13.7656 3.87849Z" fill="#025259"/>
</g>
<defs>
<clipPath id="clip0_33_136">
<rect width="16.6461" height="16.6461" fill="white"/>
</clipPath>
</defs>
</svg>
