<svg xmlns="http://www.w3.org/2000/svg" viewBox="0 0 53.11 53.6"><g id="Layer_2" data-name="Layer 2"><g id="_1" data-name="1"><g id="_762_Management_Strategy_Teamwork" data-name="762, Management, Strategy, Teamwork"><path d="M36.92,30.4a.63.63,0,0,0,.81-.1L40,28.1a.75.75,0,0,0,.1-.8l-2.43-3.8a12.2,12.2,0,0,0,1.42-3.3l4.35-1a.63.63,0,0,0,.5-.6V15.4a.63.63,0,0,0-.5-.6l-4.35-1a12.2,12.2,0,0,0-1.42-3.3l2.43-3.8a.62.62,0,0,0-.1-.8l-2.23-2a.77.77,0,0,0-.81-.1L33.08,6.2a12.41,12.41,0,0,0-3.34-1.4l-1-4.3a.64.64,0,0,0-.61-.5H24.88a.63.63,0,0,0-.6.5l-1,4.3a12.28,12.28,0,0,0-3.34,1.4L16.29,3.8a.63.63,0,0,0-.81.1L13.25,6.1a.75.75,0,0,0-.1.8l2.43,3.8A12.2,12.2,0,0,0,14.16,14L9.81,15a.63.63,0,0,0-.5.6v3.2a.63.63,0,0,0,.5.6l4.35,1a12.2,12.2,0,0,0,1.42,3.3l-2.43,3.8a.62.62,0,0,0,.1.8l2.23,2.2a.77.77,0,0,0,.81.1l3.84-2.4a12.28,12.28,0,0,0,3.34,1.4l1,4.3a.64.64,0,0,0,.61.5h3.23a.64.64,0,0,0,.61-.5l1-4.3a12.28,12.28,0,0,0,3.34-1.4Zm-7.79-2.1a.82.82,0,0,0-.5.5L27.72,33H25.49l-.91-4.2a.82.82,0,0,0-.5-.5,11.72,11.72,0,0,1-3.65-1.5.85.85,0,0,0-.7,0L16,29.1l-1.51-1.5,2.32-3.7a.85.85,0,0,0,0-.7,11.49,11.49,0,0,1-1.52-3.6.82.82,0,0,0-.5-.5l-4.25-.9V16l4.25-.9a.82.82,0,0,0,.5-.5A11.49,11.49,0,0,1,16.79,11a.85.85,0,0,0,0-.7L14.47,6.6,16,5.1l3.75,2.3a.85.85,0,0,0,.7,0,11.72,11.72,0,0,1,3.65-1.5.82.82,0,0,0,.5-.5l.91-4.2h2.23l.91,4.2a.82.82,0,0,0,.5.5,11.72,11.72,0,0,1,3.65,1.5.85.85,0,0,0,.7,0l3.75-2.3,1.51,1.5-2.32,3.7a.85.85,0,0,0,0,.7,11.47,11.47,0,0,1,1.51,3.6.87.87,0,0,0,.51.5l4.25.9v2.2l-4.25.9a.86.86,0,0,0-.51.5,11.47,11.47,0,0,1-1.51,3.6.85.85,0,0,0,0,.7l2.32,3.7-1.51,1.5-3.75-2.3a.85.85,0,0,0-.7,0A11.72,11.72,0,0,1,29.13,28.3Z"/><path d="M26.6,20.9a3.8,3.8,0,1,0-3.84-3.8A3.82,3.82,0,0,0,26.6,20.9Zm0-6.3a2.5,2.5,0,1,1-2.52,2.5A2.49,2.49,0,0,1,26.6,14.6Z"/><path d="M26.6,10.8a.6.6,0,0,0,0,1.2,5.1,5.1,0,1,1-5.15,5.1.61.61,0,0,0-1.22,0,6.38,6.38,0,1,0,6.37-6.3Z"/><path d="M36.11,17.1a9.56,9.56,0,1,0-9.51,9.4A9.45,9.45,0,0,0,36.11,17.1ZM26.6,25.3a8.2,8.2,0,1,1,8.3-8.2A8.28,8.28,0,0,1,26.6,25.3Z"/><path d="M42.18,40.9a5,5,0,0,0,2.23-4.1,5,5,0,0,0-9.91,0,5,5,0,0,0,2.22,4.1,9.21,9.21,0,0,0-5.87,12.3.69.69,0,0,0,.61.4H47.65a.68.68,0,0,0,.6-.4A10.16,10.16,0,0,0,49,49.7,9.84,9.84,0,0,0,42.18,40.9Zm-1.31,5.5-1.52,1.4-1.42-1.4,1.42-3.6Zm-5.26-9.6a3.74,3.74,0,1,1,3.74,3.7A3.71,3.71,0,0,1,35.61,36.8ZM47,52.4H44.41V49.8a.61.61,0,0,0-1.22,0v2.6H35.71V49.8a.61.61,0,0,0-1.21,0v2.6H31.86a8,8,0,0,1,6.68-10.5l-1.82,4.5a.88.88,0,0,0,.1.7l2.23,2.2a.76.76,0,0,0,.91,0l2.22-2.2a.56.56,0,0,0,.1-.7l-1.92-4.6a7.94,7.94,0,0,1,7.08,7.9A8.42,8.42,0,0,1,47,52.4Z"/><path d="M16.59,40.9a5,5,0,0,0,2.23-4.1,5,5,0,0,0-9.92,0,5,5,0,0,0,2.23,4.1A9.21,9.21,0,0,0,5.26,53.2a.68.68,0,0,0,.61.4H22.05a.68.68,0,0,0,.61-.4,10.4,10.4,0,0,0,.71-3.5A9.73,9.73,0,0,0,16.59,40.9Zm-1.32,5.5-1.41,1.4-1.42-1.4,1.42-3.6Zm-5.15-9.6a3.74,3.74,0,1,1,3.74,3.7A3.65,3.65,0,0,1,10.12,36.8ZM21.45,52.4H18.82V49.8a.65.65,0,0,0-.61-.6.65.65,0,0,0-.61.6v2.6H10.12V49.8a.61.61,0,0,0-1.22,0v2.6H6.27A8,8,0,0,1,13,41.9l-1.82,4.5a.88.88,0,0,0,.1.7l2.22,2.2a.76.76,0,0,0,.91,0l2.23-2.2a.59.59,0,0,0,.1-.7l-1.92-4.6A8,8,0,0,1,21.45,52.4Z"/><path d="M26.3,46.8a.9.9,0,1,1-.91.9A.9.9,0,0,1,26.3,46.8Z"/><path d="M49.06,38a.9.9,0,1,1-.91.9A.9.9,0,0,1,49.06,38Z"/><path d="M2.23,39.3a.9.9,0,1,1-.92.9A.9.9,0,0,1,2.23,39.3Z"/><path d="M7.69,8A3.82,3.82,0,0,0,3.84,4.2a3.8,3.8,0,1,0,0,7.6A3.82,3.82,0,0,0,7.69,8ZM3.84,10.5a2.5,2.5,0,1,1,0-5,2.5,2.5,0,1,1,0,5Z"/><path d="M50,21.7a3.1,3.1,0,1,0,3.14,3.1A3.07,3.07,0,0,0,50,21.7Zm0,5a1.91,1.91,0,0,1-1.92-1.9A1.85,1.85,0,0,1,50,22.9a1.91,1.91,0,0,1,1.92,1.9A1.85,1.85,0,0,1,50,26.7Z"/><path d="M51,14.9a.9.9,0,1,1-.91.9A.9.9,0,0,1,51,14.9Z"/><path d="M44,.8a.9.9,0,1,1-.91.9A.9.9,0,0,1,44,.8Z"/><path d="M9.81,2.4a.9.9,0,1,1-.91.9A.9.9,0,0,1,9.81,2.4Z"/><path d="M2.23,19.3a.9.9,0,1,1-.92.9A.9.9,0,0,1,2.23,19.3Z"/><path d="M28.22,37.4a.9.9,0,1,1-.91.9A.9.9,0,0,1,28.22,37.4Z"/></g></g></g></svg>