<svg xmlns="http://www.w3.org/2000/svg" viewBox="0 0 56.35 56.2"><g id="Layer_2" data-name="Layer 2"><g id="_1" data-name="1"><g id="_765_List_Order_Paper_Schedule_Sheet" data-name="765, List, Order, Paper, Schedule, Sheet"><path d="M48.66,33.9h0l1.82-1.8h0l1.31-1.3a3.65,3.65,0,0,0,0-5.3,3.75,3.75,0,0,0-5.36,0L43,28.9V8.4a4,4,0,0,0-4-4H37.33V1.3a.61.61,0,0,0-1.22,0V4.4H31.06V1.3a.61.61,0,0,0-1.22,0V4.4H24.78V1.3a.61.61,0,0,0-1.21,0V4.4H18.51V1.3a.61.61,0,0,0-1.21,0V4.4H12.24V1.3A.61.61,0,0,0,11,1.3V4.4H9.41a4,4,0,0,0-4,4V46.6a4,4,0,0,0,4.05,4H22.76l-.61,3.5a.6.6,0,0,0,.71.7l5.36-.9c.1,0,.21-.1.31-.2l3.13-3.1H39a4,4,0,0,0,4-4V39.5ZM30.85,49.7l-1.31-1.3L46,32.1l1.31,1.3ZM28,45.4,39,34.6h0l4.75-4.7L45,31.2,28.63,47.5l-1.32-1.3A5.74,5.74,0,0,1,28,45.4Zm17.5-17.3,3.54,3.5-.91.9L44.61,29Zm1.82-1.8a2.46,2.46,0,0,1,3.54,0,2.4,2.4,0,0,1,0,3.5l-.81,1-3.54-3.5ZM9.1,49.4a2.81,2.81,0,0,1-2.83-2.8V8.4A2.81,2.81,0,0,1,9.1,5.6h1.62v.7A2.56,2.56,0,0,0,8.8,8.7V10a2.53,2.53,0,0,0,5.06,0V8.7a2.47,2.47,0,0,0-1.92-2.4V5.6h5v.7a2.56,2.56,0,0,0-1.92,2.4V10a2.53,2.53,0,0,0,5.06,0V8.7a2.47,2.47,0,0,0-1.92-2.4V5.6h5.06v.7a2.56,2.56,0,0,0-1.93,2.4V10a2.53,2.53,0,0,0,5.06,0V8.7a2.47,2.47,0,0,0-1.92-2.4V5.6h5.06v.7a2.56,2.56,0,0,0-1.92,2.4V10a2.53,2.53,0,0,0,5.05,0V8.7a2.46,2.46,0,0,0-1.92-2.4V5.6h5.06v.7a2.56,2.56,0,0,0-1.92,2.4V10A2.53,2.53,0,0,0,39,10V8.7A2.47,2.47,0,0,0,37,6.3V5.6H39a2.81,2.81,0,0,1,2.83,2.8V30.1l-2.53,2.5V18.1a.65.65,0,0,0-.61-.6c-.3,0-.71.3-.71.6V33.9L27.31,44.4H10.12V18.1a.61.61,0,0,0-1.22,0V45a.65.65,0,0,0,.61.6H26.1l-2.83,2.8c-.1.1-.21.2-.21.3l-.1.6H9.1ZM11.43,7.5a1.33,1.33,0,0,1,1.32,1.3v1.3a1.32,1.32,0,0,1-2.63,0V8.8A1.26,1.26,0,0,1,11.43,7.5Zm6.27,0A1.33,1.33,0,0,1,19,8.8v1.3a1.32,1.32,0,0,1-2.63,0V8.8A1.32,1.32,0,0,1,17.7,7.5Zm6.38,0a1.33,1.33,0,0,1,1.31,1.3v1.3a1.33,1.33,0,0,1-1.31,1.3A1.42,1.42,0,0,1,22.76,10V8.7A1.25,1.25,0,0,1,24.08,7.5Zm6.27,0a1.33,1.33,0,0,1,1.31,1.3v1.3a1.32,1.32,0,0,1-2.63,0V8.8A1.33,1.33,0,0,1,30.35,7.5Zm6.37,0A1.33,1.33,0,0,1,38,8.8v1.3a1.32,1.32,0,0,1-2.63,0V8.8A1.26,1.26,0,0,1,36.72,7.5Zm-8.9,45.2-4.25.7.71-4.2L26.5,47,30,50.5Zm14-6.1A2.81,2.81,0,0,1,39,49.4H33.08l3.84-3.8h1.72a.65.65,0,0,0,.61-.6V43.3l2.53-2.5Z"/><path d="M52.5,6.9a3.8,3.8,0,1,0,3.85,3.8A3.9,3.9,0,0,0,52.5,6.9Zm0,6.2A2.5,2.5,0,1,1,55,10.6,2.49,2.49,0,0,1,52.5,13.1Z"/><path d="M3.44,50.6a2.8,2.8,0,1,0,0,5.6,2.87,2.87,0,0,0,2.83-2.8A2.75,2.75,0,0,0,3.44,50.6Zm0,4.4a1.6,1.6,0,1,1,0-3.2,1.6,1.6,0,1,1,0,3.2Z"/><path d="M52.2,36.3a.9.9,0,1,1-.91.9A.9.9,0,0,1,52.2,36.3Z"/><path d="M49.67,48.2a.9.9,0,1,1-.91.9A.9.9,0,0,1,49.67,48.2Z"/><ellipse cx="33.18" cy="52.8" rx="0.91" ry="0.9"/><path d="M47.75,19.4a.9.9,0,1,1-.91.9A.9.9,0,0,1,47.75,19.4Z"/><path d="M47.75,0a.9.9,0,0,1,.91.9.91.91,0,1,1-.91-.9Z"/><path d="M3.44,2.5a.9.9,0,1,1-.91.9A.9.9,0,0,1,3.44,2.5Z"/><path d="M.91,30.7a.9.9,0,1,1,0,1.8.9.9,0,1,1,0-1.8Z"/><path d="M13,52.5a.9.9,0,1,1-.91.9A.9.9,0,0,1,13,52.5Z"/><path d="M14,20.6H34.19a.6.6,0,1,0,0-1.2H14a.65.65,0,0,0-.61.6C13.25,20.3,13.56,20.6,14,20.6Z"/><path d="M14,23.1H34.19a.6.6,0,1,0,0-1.2H14a.65.65,0,0,0-.61.6C13.25,22.8,13.56,23.1,14,23.1Z"/><path d="M14,25.6H34.19a.6.6,0,1,0,0-1.2H14a.65.65,0,0,0-.61.6C13.25,25.3,13.56,25.6,14,25.6Z"/><path d="M14,28.1H34.19a.6.6,0,1,0,0-1.2H14a.65.65,0,0,0-.61.6C13.25,27.8,13.56,28.1,14,28.1Z"/><path d="M14,30.6H34.19a.6.6,0,1,0,0-1.2H14a.65.65,0,0,0-.61.6C13.25,30.3,13.56,30.6,14,30.6Z"/><path d="M14,33.1H24.68a.6.6,0,1,0,0-1.2H14a.65.65,0,0,0-.61.6C13.25,32.8,13.56,33.1,14,33.1Z"/><path d="M14,35.6h6.37a.6.6,0,1,0,0-1.2H14a.65.65,0,0,0-.61.6C13.25,35.3,13.56,35.6,14,35.6Z"/></g></g></g></svg>