<?xml version="1.0" encoding="utf-8"?>
<!-- Generator: Adobe Illustrator 26.0.1, SVG Export Plug-In . SVG Version: 6.00 Build 0)  -->
<svg version="1.1" id="Layer_1" xmlns="http://www.w3.org/2000/svg" xmlns:xlink="http://www.w3.org/1999/xlink" x="0px" y="0px"
	 viewBox="0 0 166 47" style="enable-background:new 0 0 166 47;" xml:space="preserve">
<style type="text/css">
	.st0{opacity:0.46;fill:#F29325;}
</style>
<path class="st0" d="M149.9,9.1c-11.5-4.4-23.5-7.6-35.8-9.1c-1.6-0.2-3.3,1.3-3.7,2.8c-0.4,1.3-0.5,2.6-0.1,4
	c0.3,1.4,1.2,2.4,0.3,3.7c-1.7,2.4-6.1,2-8.4,0.8C99.7,10,98,7.4,95.9,5.6c-2-1.8-4.2-3.1-6.8-4.1c-4.5-1.8-9.8-2.2-14.1,0.2
	c-1.8,1.1-3.3,2.7-4.1,4.7c-0.4,1.1-0.5,2.1-0.5,3.3c0.1,1.8,1,4-1.6,3.7c-3.1-0.4-6.2-2-9.2-2.8c-3-0.9-5.9-1.6-9.1-1.9
	c-5.6-0.4-10.8,1.2-15.2,4.6c-3.8,3-6.7,7.2-10.8,9.7c-4.8,2.9-10.9,1.9-16,3.8c-4.2,1.6-9.4,5.3-8.6,10.6c0.9,5.7,8.3,6.2,13,6.1
	c6.2,0,11.9-2.1,17.7-3.9c6.1-2,12-2.7,18.3-1.4c11.7,2.3,23.6,9.6,35.8,8.7c5-0.4,10.1-3.1,11.6-8.2c0.4-1.2,0.2-2.6,1.4-3.3
	c1.2-0.7,2.8-0.3,4,0.2c2.9,1.1,5.2,3.3,7.8,4.8c5.3,3,11.7,4.7,17.7,2.6c5.7-2,8.1-6.3,9.8-11.6c0.8-2.6,1.4-4.5,4.5-4.2
	c3.3,0.4,6.6,1.8,9.9,2.2c5.4,0.7,11.2-1,13.9-6c0.5-0.8,0.5-1.5,0.4-2.2C167.2,15.7,152.5,10.1,149.9,9.1z"/>
</svg>
