<svg xmlns="http://www.w3.org/2000/svg" viewBox="0 0 54.32 53.6"><g id="Layer_2" data-name="Layer 2"><g id="_1" data-name="1"><g id="_764_Business_Plan_Analysis" data-name="764, Business, Plan, Analysis"><path d="M42.08,32.6a.76.76,0,0,0-.91,0l-1,1-1.72-1.7A19.41,19.41,0,0,0,36.52,6.7,19.79,19.79,0,0,0,2.83,20.5,19.56,19.56,0,0,0,22.56,39.9a20.06,20.06,0,0,0,11.63-3.7l1.72,1.6-1,1a.75.75,0,0,0,0,.9L45.42,50.1a4.81,4.81,0,0,0,6.68,0l.4-.4a4.67,4.67,0,0,0,0-6.6ZM34.7,34.9a.8.8,0,0,0-.81-.1A18.54,18.54,0,0,1,9.61,33.3,18,18,0,0,1,4.25,20.4,18.24,18.24,0,0,1,22.66,2.2,18.64,18.64,0,0,1,35.71,7.5a18,18,0,0,1,1.52,24,.52.52,0,0,0,.1.8l2,2-2.43,2.4Zm17,13.9-.4.4a3.64,3.64,0,0,1-5,0l-10.11-10,5.36-5.3,10.11,10A3.53,3.53,0,0,1,51.69,48.8Z"/><path d="M47.14,44.7a2.37,2.37,0,0,0-.71,1.6,2.28,2.28,0,0,0,2.33,2.3,2,2,0,0,0,1.62-.7,2.34,2.34,0,0,0,0-3.3A2.38,2.38,0,0,0,47.14,44.7Zm1.62,2.7a1.1,1.1,0,1,1,1.11-1.1C49.87,46.6,49.37,47.4,48.76,47.4Z"/><path d="M41.58,36.9l-2.43,2.4a.65.65,0,0,0,.4,1.1.52.52,0,0,0,.41-.2l2.43-2.4a.75.75,0,0,0,0-.9C42.28,36.6,41.88,36.6,41.58,36.9Z"/><path d="M9.41,48.1a.65.65,0,0,0,.6.6H33.38a.6.6,0,1,0,0-1.2H10C9.71,47.4,9.41,47.7,9.41,48.1Z"/><path d="M40.36,50.6a.65.65,0,0,0-.6-.6H6.27a.6.6,0,1,0,0,1.2H39.76A.58.58,0,0,0,40.36,50.6Z"/><path d="M45.42,52.4H11.94a.6.6,0,1,0,0,1.2H45.42A.65.65,0,0,0,46,53C46.13,52.7,45.82,52.4,45.42,52.4Z"/><path d="M49.26,11.8a5,5,0,1,0-5-5A5,5,0,0,0,49.26,11.8Zm0-8.7a3.8,3.8,0,1,1-3.84,3.8A3.82,3.82,0,0,1,49.26,3.1Z"/><path d="M36.32,1.2a.9.9,0,1,1-.91.9A.9.9,0,0,1,36.32,1.2Z"/><path d="M51.49,16.8a.9.9,0,1,1-.91.9A.9.9,0,0,1,51.49,16.8Z"/><path d="M49.57,28.1a.9.9,0,1,1-.91.9A.9.9,0,0,1,49.57,28.1Z"/><path d="M2.12,49.3a.9.9,0,1,1-.91.9A.9.9,0,0,1,2.12,49.3Z"/><path d="M7.18,0a.9.9,0,0,1,.91.9A.91.91,0,0,1,6.27.9.9.9,0,0,1,7.18,0Z"/><path d="M.91,13.1a.9.9,0,1,1,0,1.8.9.9,0,1,1,0-1.8Z"/><path d="M29.94,42.5a.9.9,0,1,1-.91.9A.9.9,0,0,1,29.94,42.5Z"/><path d="M6.88,37.4a3.14,3.14,0,1,0-3.14,3.1A3.14,3.14,0,0,0,6.88,37.4ZM3.74,39.3a1.9,1.9,0,1,1,0-3.8,1.84,1.84,0,0,1,1.92,1.9A1.91,1.91,0,0,1,3.74,39.3Z"/><path d="M51.49,51.8a.9.9,0,1,1-.91.9A.9.9,0,0,1,51.49,51.8Z"/><path d="M22.56,5A15.6,15.6,0,0,0,6.88,20.5,15.52,15.52,0,0,0,22.56,35.9a15.45,15.45,0,1,0,0-30.9Zm0,1.3a14.19,14.19,0,0,1,14,17.3v-3a.65.65,0,0,0-.61-.6H32.07a.65.65,0,0,0-.61.6v11c-.2.2-.4.3-.61.5V23.8a.65.65,0,0,0-.6-.6H26.4a.65.65,0,0,0-.6.6V34.4c-.21,0-.41.1-.61.1v-22a.65.65,0,0,0-.61-.6H20.74a.65.65,0,0,0-.61.6v22c-.2,0-.4-.1-.61-.1V18.7a.65.65,0,0,0-.6-.6H15.07a.65.65,0,0,0-.6.6V32.2a2.49,2.49,0,0,1-.61-.5V21.8a.65.65,0,0,0-.61-.6H9.41a.65.65,0,0,0-.61.6v2.6a12.27,12.27,0,0,1-.51-3.9A14.13,14.13,0,0,1,22.56,6.3Zm7.08,26.5a19.3,19.3,0,0,1-2.53,1.1V24.3h2.53ZM18.31,34a11.4,11.4,0,0,1-2.53-1.1V19.3h2.53ZM10,27.4V22.5h2.53v8.2A20.61,20.61,0,0,1,10,27.4Zm11.44,7.2V13.1H24V34.6A21.16,21.16,0,0,1,21.45,34.6Zm11.33-4.2V21.2H35.3V27A13.39,13.39,0,0,1,32.78,30.4Z"/></g></g></g></svg>