<svg width="17" height="17" viewBox="0 0 17 17" fill="none" xmlns="http://www.w3.org/2000/svg">
<g clip-path="url(#clip0_33_137)">
<path d="M16.4803 4.99396C16.4803 4.99396 16.3178 3.84628 15.8171 3.34235C15.1831 2.6791 14.4743 2.67585 14.1492 2.63684C11.8214 2.46777 8.32632 2.46777 8.32632 2.46777H8.31982C8.31982 2.46777 4.82478 2.46777 2.49692 2.63684C2.1718 2.67585 1.46304 2.6791 0.829056 3.34235C0.328371 3.84628 0.169062 4.99396 0.169062 4.99396C0.169062 4.99396 0 6.3432 0 7.6892V8.95066C0 10.2967 0.165811 11.6459 0.165811 11.6459C0.165811 11.6459 0.328371 12.7936 0.825804 13.2975C1.45979 13.9608 2.2921 13.938 2.66273 14.0095C3.99572 14.1363 8.32307 14.1753 8.32307 14.1753C8.32307 14.1753 11.8214 14.1688 14.1492 14.003C14.4743 13.964 15.1831 13.9608 15.8171 13.2975C16.3178 12.7936 16.4803 11.6459 16.4803 11.6459C16.4803 11.6459 16.6461 10.2999 16.6461 8.95066V7.6892C16.6461 6.3432 16.4803 4.99396 16.4803 4.99396ZM6.60318 10.482V5.8035L11.0996 8.15087L6.60318 10.482Z" fill="#025259"/>
</g>
<defs>
<clipPath id="clip0_33_137">
<rect width="16.6461" height="16.6461" fill="white"/>
</clipPath>
</defs>
</svg>
